<svg width="62" height="62" viewBox="0 0 62 62" fill="none" xmlns="http://www.w3.org/2000/svg">
<path d="M44.915 11.6075C45.6744 11.6075 46.3375 11.3242 46.9042 10.7575C47.4708 10.1908 47.7542 9.52778 47.7542 8.76833C47.7542 8.00889 47.4708 7.34583 46.9042 6.77916C46.3375 6.2125 45.6744 5.92916 44.915 5.92916C44.1556 5.92916 43.4925 6.2125 42.9258 6.77916C42.3592 7.34583 42.0758 8.00889 42.0758 8.76833C42.0758 9.52778 42.3592 10.1908 42.9258 10.7575C43.4925 11.3242 44.1556 11.6075 44.915 11.6075ZM30.4983 11.6075C31.2578 11.6075 31.9208 11.3242 32.4875 10.7575C33.0542 10.1908 33.3375 9.52778 33.3375 8.76833C33.3375 8.00889 33.0542 7.34583 32.4875 6.77916C31.9208 6.2125 31.2578 5.92916 30.4983 5.92916C29.7389 5.92916 29.0758 6.2125 28.5092 6.77916C27.9425 7.34583 27.6592 8.00889 27.6592 8.76833C27.6592 9.52778 27.9425 10.1908 28.5092 10.7575C29.0758 11.3242 29.7389 11.6075 30.4983 11.6075ZM16.0817 11.6075C16.8411 11.6075 17.5042 11.3242 18.0708 10.7575C18.6375 10.1908 18.9208 9.52778 18.9208 8.76833C18.9208 8.00889 18.6375 7.34583 18.0708 6.77916C17.5042 6.2125 16.8411 5.92916 16.0817 5.92916C15.3222 5.92916 14.6592 6.2125 14.0925 6.77916C13.5258 7.34583 13.2425 8.00889 13.2425 8.76833C13.2425 9.52778 13.5258 10.1908 14.0925 10.7575C14.6592 11.3242 15.3222 11.6075 16.0817 11.6075ZM5.6775 18.7683V55.3392H55.3192V18.7683H5.6775ZM25.2308 31.2683H35.8583C36.5967 31.2683 37.2161 31.0161 37.7167 30.5117C38.2172 30.0072 38.4675 29.3819 38.4675 28.6358C38.4675 27.8958 38.2167 27.2797 37.715 26.7875C37.2128 26.2953 36.5908 26.0492 35.8492 26.0492H25.2217C24.4833 26.0492 23.8639 26.2994 23.3633 26.8C22.8628 27.3011 22.6125 27.9217 22.6125 28.6617C22.6125 29.4017 22.8633 30.0211 23.365 30.52C23.8672 31.0189 24.4892 31.2683 25.2308 31.2683ZM5.6775 61.0167C4.14417 61.0167 2.81472 60.4536 1.68917 59.3275C0.563055 58.2019 0 56.8725 0 55.3392V5.6975C0 4.15861 0.563055 2.82444 1.68917 1.695C2.81472 0.564997 4.14417 0 5.6775 0H55.3192C56.8581 0 58.1922 0.564997 59.3217 1.695C60.4517 2.82444 61.0167 4.15861 61.0167 5.6975V55.3392C61.0167 56.8725 60.4517 58.2019 59.3217 59.3275C58.1922 60.4536 56.8581 61.0167 55.3192 61.0167H5.6775Z" fill="#EE2E24"/>
</svg>
