<svg width="42" height="43" viewBox="0 0 42 43" fill="none" xmlns="http://www.w3.org/2000/svg">
<path d="M6.78894 16.992C6.13561 16.8233 5.52127 16.5867 4.94594 16.282C4.37061 15.9773 3.86161 15.5957 3.41894 15.137L2.36644 15.563C2.00944 15.7043 1.66261 15.7203 1.32594 15.611C0.988941 15.5017 0.73094 15.2858 0.55194 14.9635L0.22494 14.425C0.0412737 14.136 -0.0298928 13.8132 0.0114405 13.4565C0.0527738 13.1002 0.214607 12.7933 0.49694 12.536L1.46144 11.6265C1.29477 10.9865 1.21144 10.3612 1.21144 9.7505C1.21144 9.14017 1.29477 8.513 1.46144 7.869L0.49694 6.939C0.214607 6.68767 0.0527738 6.37567 0.0114405 6.003C-0.0298928 5.63 0.0407737 5.29817 0.22344 5.0075L0.484941 4.572C0.659607 4.248 0.927607 4.02367 1.28894 3.899C1.65027 3.77433 2.01477 3.78267 2.38244 3.924L3.41894 4.35C3.86961 3.89133 4.37994 3.5095 4.94994 3.2045C5.52027 2.89983 6.13294 2.66367 6.78794 2.496L6.92344 1.3955C6.99011 0.997165 7.16777 0.664999 7.45644 0.398999C7.74511 0.132999 8.08761 0 8.48394 0H8.93444C9.32111 0 9.65827 0.132832 9.94594 0.398499C10.2336 0.664165 10.4138 0.992499 10.4864 1.3835L10.6204 2.495C11.2658 2.66367 11.8761 2.90033 12.4514 3.205C13.0268 3.50967 13.5358 3.89133 13.9784 4.35L15.0309 3.924C15.3853 3.78267 15.7334 3.766 16.0754 3.874C16.4174 3.982 16.6798 4.198 16.8624 4.522L17.1864 5.0075C17.3611 5.29817 17.4298 5.6325 17.3924 6.0105C17.3551 6.38817 17.1911 6.70167 16.9004 6.951L15.8864 7.865C16.0611 8.47667 16.1484 9.0965 16.1484 9.7245C16.1484 10.3525 16.0611 10.985 15.8864 11.622L16.9004 12.548C17.1831 12.7973 17.3451 13.1025 17.3864 13.4635C17.4278 13.8248 17.3611 14.1635 17.1864 14.4795L16.9124 14.9135C16.7298 15.2385 16.4598 15.4633 16.1024 15.588C15.7451 15.7127 15.3919 15.7043 15.0429 15.563L13.9784 15.137C13.5358 15.629 13.0274 16.0192 12.4534 16.3075C11.8791 16.5955 11.2684 16.8233 10.6214 16.991L10.4864 18.0875C10.4118 18.4885 10.2308 18.822 9.94344 19.088C9.65611 19.354 9.31544 19.487 8.92144 19.487H8.47394C8.07994 19.487 7.73944 19.3558 7.45244 19.0935C7.16544 18.8315 6.98911 18.5015 6.92344 18.1035L6.78894 16.992ZM8.69544 14.272C9.94311 14.272 11.0113 13.8302 11.8999 12.9465C12.7886 12.0632 13.2329 10.9958 13.2329 9.7445C13.2329 8.49317 12.7888 7.4255 11.9004 6.5415C11.0121 5.65717 9.94277 5.215 8.69244 5.215C7.44177 5.215 6.37444 5.6585 5.49044 6.5455C4.60644 7.43217 4.16444 8.4995 4.16444 9.7475C4.16444 10.9955 4.60761 12.0615 5.49394 12.9455C6.38061 13.8298 7.44777 14.272 8.69544 14.272ZM27.5414 39.8435C26.5938 39.6102 25.6916 39.2482 24.8349 38.7575C23.9786 38.2672 23.2384 37.6313 22.6144 36.85L21.3144 37.262C20.9144 37.3953 20.5124 37.389 20.1084 37.243C19.7044 37.097 19.3911 36.838 19.1684 36.466L18.7604 35.77C18.5298 35.398 18.4478 34.9963 18.5144 34.565C18.5811 34.1337 18.7811 33.7687 19.1144 33.47L20.1144 32.574C19.8238 31.6593 19.6784 30.7155 19.6784 29.7425C19.6784 28.7692 19.8238 27.8293 20.1144 26.923L19.1144 26.073C18.7811 25.8063 18.5811 25.45 18.5144 25.004C18.4478 24.558 18.5318 24.1492 18.7664 23.7775L19.2184 23.019C19.4158 22.655 19.7061 22.4063 20.0894 22.273C20.4728 22.1397 20.8644 22.123 21.2644 22.223L22.6144 22.585C23.2718 21.837 24.0203 21.2113 24.8599 20.708C25.6999 20.205 26.5956 19.8495 27.5469 19.6415L27.8934 18.1915C27.9921 17.7915 28.1998 17.4582 28.5164 17.1915C28.8331 16.9248 29.2081 16.7915 29.6414 16.7915H30.5414C30.9748 16.7915 31.3581 16.9248 31.6914 17.1915C32.0248 17.4582 32.2414 17.7915 32.3414 18.1915L32.6914 19.6415C33.6981 19.7828 34.6131 20.1153 35.4364 20.639C36.2594 21.163 36.9996 21.8117 37.6569 22.585L39.0069 22.223C39.4149 22.123 39.8106 22.148 40.1939 22.298C40.5773 22.448 40.8676 22.7063 41.0649 23.073L41.5109 23.773C41.7416 24.1397 41.8153 24.5397 41.7319 24.973C41.6486 25.4063 41.4403 25.773 41.1069 26.073L40.1569 26.923C40.4476 27.8293 40.5929 28.7692 40.5929 29.7425C40.5929 30.7155 40.4476 31.6593 40.1569 32.574L41.1569 33.466C41.4903 33.7633 41.6903 34.1287 41.7569 34.562C41.8236 34.9953 41.7416 35.3967 41.5109 35.766L41.1149 36.47C40.8843 36.8393 40.5669 37.1053 40.1629 37.268C39.7589 37.4307 39.3403 37.4287 38.9069 37.262L37.6569 36.85C37.0329 37.6647 36.2948 38.3088 35.4424 38.7825C34.5898 39.2565 33.6728 39.6102 32.6914 39.8435L32.3414 41.2935C32.2414 41.6935 32.0331 42.0268 31.7164 42.2935C31.3998 42.5602 31.0248 42.6935 30.5914 42.6935H29.6914C29.2581 42.6935 28.8748 42.5602 28.5414 42.2935C28.2081 42.0268 27.9914 41.6935 27.8914 41.2935L27.5414 39.8435ZM30.1359 36.585C32.0413 36.585 33.6569 35.9207 34.9829 34.592C36.3089 33.2633 36.9719 31.6475 36.9719 29.7445C36.9719 27.8415 36.3086 26.225 34.9819 24.895C33.6553 23.565 32.0418 22.9 30.1414 22.9C28.2321 22.9 26.6144 23.5645 25.2884 24.8935C23.9624 26.2228 23.2994 27.8392 23.2994 29.7425C23.2994 31.6518 23.9624 33.2695 25.2884 34.5955C26.6144 35.9218 28.2303 36.585 30.1359 36.585Z" fill="white"/>
</svg>
