<svg width="45" height="34" viewBox="0 0 45 34" fill="none" xmlns="http://www.w3.org/2000/svg">
<path d="M12.096 33.327C10.3727 33.327 8.958 32.7073 7.852 31.468C6.74567 30.2283 6.27583 28.7637 6.4425 27.074H3.46C2.97933 27.074 2.57517 26.9095 2.2475 26.5805C1.92017 26.2512 1.7565 25.845 1.7565 25.362C1.7565 24.8787 1.92017 24.4753 2.2475 24.152C2.57517 23.829 2.97933 23.6675 3.46 23.6675H8.087C8.571 23.1312 9.155 22.706 9.839 22.392C10.523 22.0777 11.2748 21.9205 12.0945 21.9205C12.9142 21.9205 13.6643 22.0778 14.345 22.3925C15.0253 22.7075 15.6118 23.1325 16.1045 23.6675H26.0645L30.724 3.4185H9.887C9.39 3.4185 8.98817 3.254 8.6815 2.925C8.37517 2.596 8.222 2.19017 8.222 1.7075C8.222 1.22483 8.38567 0.819501 8.713 0.491501C9.04033 0.163834 9.44833 0 9.937 0H32.837C33.3677 0 33.8112 0.217499 34.1675 0.652499C34.5242 1.08783 34.6485 1.57067 34.5405 2.101L32.9425 8.966H37.4775C38.0222 8.966 38.5333 9.08434 39.011 9.321C39.489 9.55734 39.8893 9.89083 40.212 10.3215L44.0805 15.516C44.3825 15.931 44.5823 16.3607 44.68 16.805C44.7777 17.2497 44.7852 17.715 44.7025 18.201L43.2165 25.6685C43.1352 26.0718 42.9347 26.4068 42.615 26.6735C42.2953 26.9405 41.932 27.074 41.525 27.074H38.799C38.9657 28.771 38.4877 30.2375 37.365 31.4735C36.242 32.7092 34.819 33.327 33.096 33.327C31.3727 33.327 29.958 32.7073 28.852 31.468C27.7457 30.2283 27.2758 28.7637 27.4425 27.074H17.799C17.9657 28.771 17.4877 30.2375 16.365 31.4735C15.242 32.7092 13.819 33.327 12.096 33.327ZM30.583 19.2175H40.986L41.31 17.4955L37.4775 12.373H32.1525L30.583 19.2175ZM26.4645 21.8675L26.7895 20.5615C27.0062 19.6908 27.2478 18.6182 27.5145 17.3435C27.6608 16.7628 27.7887 16.2088 27.898 15.6815C28.0073 15.1538 28.1155 14.6953 28.2225 14.306L28.5425 13.0015C28.7555 12.1315 28.9973 11.0585 29.268 9.7825C29.5387 8.5065 29.776 7.43117 29.98 6.5565L30.286 5.2445L30.724 3.4185L26.0645 23.6675L26.4645 21.8675ZM1.6655 19.0465C1.1685 19.0465 0.766667 18.8828 0.46 18.5555C0.153333 18.2282 0 17.8242 0 17.3435C0 16.8625 0.161667 16.4583 0.485 16.131C0.808333 15.8037 1.2185 15.64 1.7155 15.64H9.7275C10.2082 15.64 10.6122 15.8045 10.9395 16.1335C11.2668 16.4628 11.4305 16.869 11.4305 17.352C11.4305 17.8353 11.2668 18.2387 10.9395 18.562C10.6122 18.885 10.2082 19.0465 9.7275 19.0465H1.6655ZM5.6655 11.4835C5.17683 11.4835 4.76867 11.319 4.441 10.99C4.11367 10.661 3.95 10.2552 3.95 9.7725C3.95 9.29017 4.11367 8.885 4.441 8.557C4.76867 8.229 5.17683 8.065 5.6655 8.065H15.7155C16.1952 8.065 16.601 8.23183 16.933 8.5655C17.2647 8.8995 17.4305 9.30767 17.4305 9.79C17.4305 10.2727 17.2647 10.6757 16.933 10.999C16.601 11.322 16.1952 11.4835 15.7155 11.4835H5.6655ZM12.119 29.9205C12.7443 29.9205 13.2795 29.6902 13.7245 29.2295C14.1698 28.7688 14.3925 28.2258 14.3925 27.6005C14.3925 26.9755 14.1727 26.4403 13.733 25.995C13.293 25.5497 12.7478 25.327 12.0975 25.327C11.4892 25.327 10.954 25.547 10.492 25.987C10.03 26.4267 9.799 26.9717 9.799 27.622C9.799 28.2307 10.0293 28.7658 10.49 29.2275C10.9507 29.6895 11.4937 29.9205 12.119 29.9205ZM33.119 29.9205C33.7443 29.9205 34.2795 29.6902 34.7245 29.2295C35.1698 28.7688 35.3925 28.2258 35.3925 27.6005C35.3925 26.9755 35.1727 26.4403 34.733 25.995C34.293 25.5497 33.7478 25.327 33.0975 25.327C32.4892 25.327 31.954 25.547 31.492 25.987C31.03 26.4267 30.799 26.9717 30.799 27.622C30.799 28.2307 31.0293 28.7658 31.49 29.2275C31.9507 29.6895 32.4937 29.9205 33.119 29.9205Z" fill="white"/>
</svg>
