<svg width="33" height="33" viewBox="0 0 33 33" fill="none" xmlns="http://www.w3.org/2000/svg">
<path d="M16.299 32.61C11.786 32.61 7.94133 31.0217 4.765 27.845C1.58833 24.6687 0 20.824 0 16.311C0 11.798 1.58833 7.95133 4.765 4.771C7.94133 1.59033 11.786 0 16.299 0C19.1803 0 21.7095 0.582999 23.8865 1.749C26.0638 2.915 27.9478 4.52183 29.5385 6.5695V1.572C29.5385 1.11933 29.6853 0.744166 29.979 0.4465C30.2727 0.148833 30.6497 0 31.11 0C31.5623 0 31.9373 0.148833 32.235 0.4465C32.5327 0.744166 32.6815 1.11933 32.6815 1.572V11.4395C32.6815 11.9285 32.518 12.3345 32.191 12.6575C31.8637 12.9808 31.4555 13.1425 30.9665 13.1425H21.087C20.638 13.1425 20.2658 12.9937 19.9705 12.696C19.6752 12.3983 19.5275 12.0233 19.5275 11.571C19.5275 11.1217 19.6763 10.7493 19.974 10.454C20.2717 10.1587 20.6467 10.011 21.099 10.011H27.8795C26.6048 8.043 24.9998 6.45216 23.0645 5.2385C21.1288 4.02516 18.8737 3.4185 16.299 3.4185C12.6977 3.4185 9.64867 4.66683 7.152 7.1635C4.655 9.6605 3.4065 12.7097 3.4065 16.311C3.4065 19.9123 4.655 22.9615 7.152 25.4585C9.64867 27.9552 12.6977 29.2035 16.299 29.2035C18.7353 29.2035 21.0128 28.569 23.1315 27.3C25.2505 26.0313 26.8473 24.3162 27.922 22.1545C28.1333 21.7468 28.4573 21.4457 28.894 21.251C29.3307 21.0563 29.7592 21.0542 30.1795 21.2445C30.6295 21.4272 30.9332 21.7302 31.0905 22.1535C31.2478 22.5765 31.2312 23.004 31.0405 23.436C29.7005 26.244 27.7063 28.475 25.058 30.129C22.4093 31.783 19.4897 32.61 16.299 32.61Z" fill="#030303"/>
</svg>
