<svg width="48" height="48" viewBox="0 0 48 48" fill="none" xmlns="http://www.w3.org/2000/svg">
<path d="M16.85 41.2554L4.74449 29.1499C4.38882 28.7982 4.12599 28.4061 3.95599 27.9734C3.78599 27.5411 3.70099 27.0941 3.70099 26.6324C3.70099 26.1707 3.78599 25.7299 3.95599 25.3099C4.12599 24.8902 4.38882 24.5024 4.74449 24.1464L16.9815 11.9214L12.3315 7.25989C11.9915 6.92789 11.8235 6.53589 11.8275 6.08389C11.8315 5.63222 12.0035 5.24039 12.3435 4.90839C12.6755 4.57672 13.0723 4.41089 13.534 4.41089C13.996 4.41089 14.3955 4.57672 14.7325 4.90839L33.9585 24.1464C34.3222 24.5024 34.589 24.8902 34.759 25.3099C34.929 25.7299 35.014 26.1707 35.014 26.6324C35.014 27.0941 34.929 27.5411 34.759 27.9734C34.589 28.4061 34.3222 28.7982 33.9585 29.1499L21.8535 41.2554C21.5055 41.6031 21.1197 41.8639 20.696 42.0379C20.272 42.2119 19.8292 42.2989 19.3675 42.2989C18.9058 42.2989 18.4608 42.2139 18.0325 42.0439C17.6038 41.8739 17.2097 41.6111 16.85 41.2554ZM19.3705 14.3229L7.13349 26.5599H31.6075L19.3705 14.3229ZM40.186 42.2989C39.0427 42.2989 38.0752 41.8986 37.2835 41.0979C36.4915 40.2972 36.0955 39.3164 36.0955 38.1554C36.0955 37.2954 36.2483 36.4761 36.554 35.6974C36.8593 34.9187 37.2827 34.2041 37.824 33.5534L39.1955 31.8054C39.4528 31.4734 39.7848 31.3094 40.1915 31.3134C40.5978 31.3174 40.9337 31.4814 41.199 31.8054L42.5585 33.5534C43.0665 34.2041 43.4857 34.9187 43.816 35.6974C44.146 36.4761 44.311 37.2954 44.311 38.1554C44.311 39.3164 43.9093 40.2972 43.106 41.0979C42.3027 41.8986 41.3293 42.2989 40.186 42.2989Z" fill="#030303"/>
</svg>
